PathFileType	4	(X/Y/Z)	Kaydara																																																																																																																									
DataRate	CameraRate	NumFrames	NumMarkers	Units	OrigDataRate	OrigDataStartFrame	OrigNumFrames																																																																																																																					
30	30	4	41	mm	30	81	128																																																																																																																					
Frame#	Time	EMLA_LFHD			EMLA_RFHD			EMLA_LBHD			EMLA_RBHD			EMLA_LFTShould			EMLA_RFTShould			EMLA_LRRShould			EMLA_RRRShould			EMLA_T10			EMLA_STRN			EMLA_TRUN			EMLA_LSHO			EMLA_LUPA			EMLA_LELB			EMLA_LFRM			EMLA_LWRA			EMLA_LWRB			EMLA_LFIN			EMLA_RSHO			EMLA_RUPA			EMLA_RELB			EMLA_RFRM			EMLA_RWRA			EMLA_RWRB			EMLA_RFIN			EMLA_LFWT			EMLA_RFWT			EMLA_LBWT			EMLA_RBWT			EMLA_LTHI			EMLA_LKNE			EMLA_LSHN			EMLA_LANK			EMLA_LHEE			EMLA_LTOE			EMLA_RTHI			EMLA_RKNE			EMLA_RSHN			EMLA_RANK			EMLA_RHEE			EMLA_RTOE		
		X1	Y1	Z1	X2	Y2	Z2	X3	Y3	Z3	X4	Y4	Z4	X5	Y5	Z5	X6	Y6	Z6	X7	Y7	Z7	X8	Y8	Z8	X9	Y9	Z9	X10	Y10	Z10	X11	Y11	Z11	X12	Y12	Z12	X13	Y13	Z13	X14	Y14	Z14	X15	Y15	Z15	X16	Y16	Z16	X17	Y17	Z17	X18	Y18	Z18	X19	Y19	Z19	X20	Y20	Z20	X21	Y21	Z21	X22	Y22	Z22	X23	Y23	Z23	X24	Y24	Z24	X25	Y25	Z25	X26	Y26	Z26	X27	Y27	Z27	X28	Y28	Z28	X29	Y29	Z29	X30	Y30	Z30	X31	Y31	Z31	X32	Y32	Z32	X33	Y33	Z33	X34	Y34	Z34	X35	Y35	Z35	X36	Y36	Z36	X37	Y37	Z37	X38	Y38	Z38	X39	Y39	Z39	X40	Y40	Z40	X41	Y41	Z41
																																																																																																																												
81	2.677	204.60968	1624.89441	-73.48767	34.26615	1612.9866	-81.99162	226.6251	1603.69797	-221.82468	32.35048	1592.95853	-233.58727	209.14255	1390.59418	-127.1505	63.5385	1377.20322	-123.70831	206.90979	1440.34958	-268.29191	57.14327	1430.58289	-266.59189	146.87585	1268.33717	-325.96542	138.73467	1313.6322	-90.78551	138.10304	1208.86299	-80.03748	335.50495	1419.599	-177.69142	409.99462	1246.22116	-183.47645	442.15626	1104.92836	-171.00826	421.95229	972.43851	-113.51123	314.60075	896.64894	17.84265	361.77288	840.75073	-28.01001	354.12106	839.51851	41.46435	-53.45731	1413.96057	-195.3632	-123.23758	1236.2384	-255.58939	-145.90101	1110.78484	-318.5985	-156.06877	1013.81599	-352.57584	-129.09821	822.13638	-287.70687	-159.29473	830.52429	-369.85439	-185.35816	786.89346	-329.26399	260.6431	968.24776	-157.60383	24.89612	960.56404	-145.10968	210.54543	997.86331	-352.341	38.49851	988.19534	-330.15984	265.48361	727.50313	-373.31284	259.4434	514.0786	-358.89149	222.37333	332.76432	-375.2887	215.55634	167.85856	-470.63942	147.79452	104.53683	-544.81255	169.79176	53.95903	-353.77262	-10.75797	679.42627	-221.5793	-22.44842	521.17672	-69.23281	32.12371	294.335	-43.35503	7.587	126.25864	-117.24769	72.94632	77.20382	-162.44244	20.15384	66.54215	28.99431
82	2.71	200.10078	1607.14935	-12.51423	30.24974	1593.09357	-22.58818	223.44645	1586.39877	-160.5909	29.4085	1573.09311	-173.83575	208.09185	1367.58896	-66.13618	60.71984	1353.84872	-64.29732	206.16951	1423.02689	-206.76283	55.17865	1410.87265	-206.97735	146.14618	1249.72427	-270.44714	137.26927	1290.91034	-32.04564	137.57353	1186.1113	-22.41852	333.16769	1399.90265	-115.88758	409.37954	1227.38464	-108.12624	444.42078	1088.29018	-83.49657	417.83661	963.80203	-13.76027	298.87629	905.2462	115.24236	348.7294	843.10684	81.11321	335.61363	851.75407	149.29869	-55.54549	1391.11511	-136.48642	-125.06514	1216.00487	-204.80944	-147.54358	1094.61914	-274.55515	-157.92589	1000.52406	-313.77941	-132.16093	805.35141	-261.00077	-162.15595	818.63541	-342.53654	-188.50914	772.92397	-304.79548	261.96487	953.5537	-103.16673	27.59365	940.35858	-81.33075	198.95668	982.17133	-297.12696	28.27937	966.8782	-267.15891	257.38251	724.44496	-330.74455	258.96393	510.72029	-331.1356	222.22431	329.48406	-357.72778	212.20102	171.80504	-464.08081	143.31085	112.46584	-540.92125	168.96809	53.49621	-353.73493	-0.88284	657.52235	-153.59128	-17.75414	503.61713	-0.04183	29.18701	292.36105	77.02269	-3.88806	112.26006	50.8951	58.43028	51.7652	18.1319	9.86512	90.58958	208.38482
83	2.743	195.53537	1589.40155	49.77887	25.99485	1574.63623	38.44452	220.00122	1567.18002	-97.88854	26.07611	1552.97928	-112.35037	207.76171	1341.05011	-2.23809	57.29232	1329.02725	-2.40787	202.68328	1404.38507	-145.06465	51.71465	1391.97769	-145.44808	143.08043	1230.9803	-210.66801	134.76665	1267.40784	30.21982	135.41698	1162.87216	39.44485	329.79294	1381.63513	-53.15437	405.58979	1210.59776	-34.83895	442.28111	1075.42984	2.52123	412.68227	956.92688	79.88796	286.50595	908.37334	204.75512	339.51412	844.40514	181.76262	322.03449	861.0743	247.4543	-59.13482	1369.31046	-75.27284	-126.9323	1194.57664	-148.65175	-149.21989	1075.50995	-220.86897	-159.80676	986.00754	-265.08009	-134.02281	788.19153	-226.17706	-166.14111	806.32042	-306.01751	-191.55617	758.42438	-270.09811	259.86238	937.69531	-44.98008	27.29577	920.70961	-16.33305	190.57549	964.06715	-237.11071	20.38411	944.98917	-203.03284	250.22474	720.6031	-282.69043	258.25434	506.92951	-298.6878	222.38136	326.78925	-336.53786	212.42624	177.34802	-454.40189	143.73414	123.76616	-535.56374	168.97783	53.31382	-353.3329	3.33949	629.86469	-95.96222	-17.52352	482.59029	71.36509	28.14047	298.13147	183.9625	-7.8351	117.16988	194.54651	54.78934	51.89849	172.48476	7.13355	120.30706	355.99705
84	2.777	190.50262	1573.92227	113.42335	21.06917	1560.02289	101.62969	215.36625	1549.8085	-33.79731	21.44594	1536.61575	-48.87602	201.77137	1326.44791	63.18288	52.58166	1312.45041	61.52738	198.91623	1389.89838	-78.95236	48.33516	1376.23016	-81.34068	141.90945	1215.90828	-145.40853	130.0424	1250.40764	94.73823	130.95484	1145.83847	103.23942	323.51208	1369.31534	15.98929	399.9744	1199.29749	36.47549	437.96177	1068.44772	80.78654	408.15418	952.50664	163.25672	278.65843	908.35922	286.4208	333.93478	844.50249	269.71457	314.30962	866.07819	333.46085	-63.07254	1352.85843	-13.43751	-127.7211	1178.95325	-87.82805	-149.57705	1059.87198	-160.63889	-160.70187	973.45009	-207.73283	-135.83786	773.78059	-178.06452	-170.40861	795.52956	-255.83591	-194.92527	746.18622	-220.44365	255.15835	923.74664	17.50772	23.18337	907.1904	48.26289	184.7925	947.43401	-174.39793	14.66969	927.92839	-139.20207	248.42762	716.24435	-226.87014	260.11641	503.24871	-254.96592	224.79572	324.88873	-306.32441	215.55077	186.9326	-437.83356	147.98627	141.8272	-523.98506	169.35915	53.04583	-350.78278	-3.98513	617.52853	-20.877	-18.10944	475.4948	147.64004	27.3926	296.79293	270.74644	-5.21505	115.7202	292.28846	58.88073	50.4221	275.04347	13.23925	128.24094	455.84732
